<mxfile host="app.diagrams.net" modified="2021-06-08T08:32:54.596Z" agent="5.0 (Windows NT 10.0; Win64; x64) AppleWebKit/537.36 (KHTML, like Gecko) Chrome/91.0.4472.77 Safari/537.36" etag="PiaZIVAiQsOiquZBUqdf" version="14.6.9" type="github">
  <diagram id="kgpKYQtTHZ0yAKxKKP6v" name="Page-1">
    <mxGraphModel dx="782" dy="468" grid="1" gridSize="10" guides="1" tooltips="1" connect="1" arrows="1" fold="1" page="1" pageScale="1" pageWidth="850" pageHeight="1100" math="0" shadow="0">
      <root>
        <mxCell id="0" />
        <mxCell id="1" parent="0" />
        <mxCell id="3nuBFxr9cyL0pnOWT2aG-1" value=":유저" style="shape=umlLifeline;perimeter=lifelinePerimeter;container=1;collapsible=0;recursiveResize=0;rounded=0;shadow=0;strokeWidth=1;" parent="1" vertex="1">
          <mxGeometry x="120" y="80" width="100" height="300" as="geometry" />
        </mxCell>
        <mxCell id="PX_UHMba9LjzgC6dmEwp-10" value="" style="points=[];perimeter=orthogonalPerimeter;rounded=0;shadow=0;strokeWidth=1;" vertex="1" parent="3nuBFxr9cyL0pnOWT2aG-1">
          <mxGeometry x="45" y="110" width="10" height="60" as="geometry" />
        </mxCell>
        <mxCell id="PX_UHMba9LjzgC6dmEwp-23" value="" style="points=[];perimeter=orthogonalPerimeter;rounded=0;shadow=0;strokeWidth=1;" vertex="1" parent="3nuBFxr9cyL0pnOWT2aG-1">
          <mxGeometry x="45" y="180" width="10" height="30" as="geometry" />
        </mxCell>
        <mxCell id="3nuBFxr9cyL0pnOWT2aG-5" value=":회원가입" style="shape=umlLifeline;perimeter=lifelinePerimeter;container=1;collapsible=0;recursiveResize=0;rounded=0;shadow=0;strokeWidth=1;" parent="1" vertex="1">
          <mxGeometry x="280" y="80" width="100" height="300" as="geometry" />
        </mxCell>
        <mxCell id="3nuBFxr9cyL0pnOWT2aG-6" value="" style="points=[];perimeter=orthogonalPerimeter;rounded=0;shadow=0;strokeWidth=1;" parent="3nuBFxr9cyL0pnOWT2aG-5" vertex="1">
          <mxGeometry x="45" y="80" width="10" height="30" as="geometry" />
        </mxCell>
        <mxCell id="PX_UHMba9LjzgC6dmEwp-18" value="" style="points=[];perimeter=orthogonalPerimeter;rounded=0;shadow=0;strokeWidth=1;" vertex="1" parent="3nuBFxr9cyL0pnOWT2aG-5">
          <mxGeometry x="45" y="145" width="10" height="30" as="geometry" />
        </mxCell>
        <mxCell id="PX_UHMba9LjzgC6dmEwp-1" value=":데이터베이스" style="shape=umlLifeline;perimeter=lifelinePerimeter;container=1;collapsible=0;recursiveResize=0;rounded=0;shadow=0;strokeWidth=1;" vertex="1" parent="1">
          <mxGeometry x="440" y="80" width="100" height="300" as="geometry" />
        </mxCell>
        <mxCell id="PX_UHMba9LjzgC6dmEwp-2" value="" style="points=[];perimeter=orthogonalPerimeter;rounded=0;shadow=0;strokeWidth=1;" vertex="1" parent="PX_UHMba9LjzgC6dmEwp-1">
          <mxGeometry x="45" y="80" width="10" height="50" as="geometry" />
        </mxCell>
        <mxCell id="PX_UHMba9LjzgC6dmEwp-12" style="edgeStyle=orthogonalEdgeStyle;rounded=0;orthogonalLoop=1;jettySize=auto;html=1;" edge="1" parent="1" source="PX_UHMba9LjzgC6dmEwp-10" target="3nuBFxr9cyL0pnOWT2aG-5">
          <mxGeometry relative="1" as="geometry">
            <Array as="points">
              <mxPoint x="200" y="170" />
              <mxPoint x="200" y="170" />
            </Array>
          </mxGeometry>
        </mxCell>
        <mxCell id="PX_UHMba9LjzgC6dmEwp-13" value="1. 이메일 인증()" style="edgeLabel;html=1;align=center;verticalAlign=middle;resizable=0;points=[];" vertex="1" connectable="0" parent="PX_UHMba9LjzgC6dmEwp-12">
          <mxGeometry x="-0.1586" y="-2" relative="1" as="geometry">
            <mxPoint as="offset" />
          </mxGeometry>
        </mxCell>
        <mxCell id="PX_UHMba9LjzgC6dmEwp-14" value="2.동일한 이메일 확인()" style="edgeStyle=orthogonalEdgeStyle;rounded=0;orthogonalLoop=1;jettySize=auto;html=1;" edge="1" parent="1" source="3nuBFxr9cyL0pnOWT2aG-6" target="PX_UHMba9LjzgC6dmEwp-1">
          <mxGeometry relative="1" as="geometry">
            <Array as="points">
              <mxPoint x="450" y="180" />
              <mxPoint x="450" y="180" />
            </Array>
          </mxGeometry>
        </mxCell>
        <mxCell id="PX_UHMba9LjzgC6dmEwp-15" style="edgeStyle=orthogonalEdgeStyle;rounded=0;orthogonalLoop=1;jettySize=auto;html=1;" edge="1" parent="1" source="PX_UHMba9LjzgC6dmEwp-2" target="3nuBFxr9cyL0pnOWT2aG-1">
          <mxGeometry relative="1" as="geometry">
            <Array as="points">
              <mxPoint x="410" y="200" />
              <mxPoint x="410" y="200" />
            </Array>
          </mxGeometry>
        </mxCell>
        <mxCell id="PX_UHMba9LjzgC6dmEwp-16" value="3. 이메일 인증확인()" style="edgeLabel;html=1;align=center;verticalAlign=middle;resizable=0;points=[];" vertex="1" connectable="0" parent="PX_UHMba9LjzgC6dmEwp-15">
          <mxGeometry x="0.3629" y="-3" relative="1" as="geometry">
            <mxPoint as="offset" />
          </mxGeometry>
        </mxCell>
        <mxCell id="PX_UHMba9LjzgC6dmEwp-17" style="edgeStyle=orthogonalEdgeStyle;rounded=0;orthogonalLoop=1;jettySize=auto;html=1;" edge="1" parent="1" source="PX_UHMba9LjzgC6dmEwp-10" target="3nuBFxr9cyL0pnOWT2aG-5">
          <mxGeometry relative="1" as="geometry">
            <Array as="points">
              <mxPoint x="210" y="230" />
              <mxPoint x="210" y="230" />
            </Array>
          </mxGeometry>
        </mxCell>
        <mxCell id="PX_UHMba9LjzgC6dmEwp-21" value="4. 회원정보 입력()" style="edgeLabel;html=1;align=center;verticalAlign=middle;resizable=0;points=[];" vertex="1" connectable="0" parent="PX_UHMba9LjzgC6dmEwp-17">
          <mxGeometry x="-0.3139" y="-2" relative="1" as="geometry">
            <mxPoint as="offset" />
          </mxGeometry>
        </mxCell>
        <mxCell id="PX_UHMba9LjzgC6dmEwp-19" style="edgeStyle=orthogonalEdgeStyle;rounded=0;orthogonalLoop=1;jettySize=auto;html=1;" edge="1" parent="1" source="PX_UHMba9LjzgC6dmEwp-18" target="PX_UHMba9LjzgC6dmEwp-1">
          <mxGeometry relative="1" as="geometry">
            <Array as="points">
              <mxPoint x="450" y="240" />
              <mxPoint x="450" y="240" />
            </Array>
          </mxGeometry>
        </mxCell>
        <mxCell id="PX_UHMba9LjzgC6dmEwp-22" value="5:회원정보 저장()" style="edgeLabel;html=1;align=center;verticalAlign=middle;resizable=0;points=[];" vertex="1" connectable="0" parent="PX_UHMba9LjzgC6dmEwp-19">
          <mxGeometry x="-0.2104" y="-3" relative="1" as="geometry">
            <mxPoint as="offset" />
          </mxGeometry>
        </mxCell>
        <mxCell id="PX_UHMba9LjzgC6dmEwp-25" style="edgeStyle=orthogonalEdgeStyle;rounded=0;orthogonalLoop=1;jettySize=auto;html=1;" edge="1" parent="1" source="PX_UHMba9LjzgC6dmEwp-20" target="PX_UHMba9LjzgC6dmEwp-23">
          <mxGeometry relative="1" as="geometry">
            <Array as="points">
              <mxPoint x="400" y="275" />
              <mxPoint x="400" y="275" />
            </Array>
          </mxGeometry>
        </mxCell>
        <mxCell id="PX_UHMba9LjzgC6dmEwp-26" value="6:회원가입 완료()" style="edgeLabel;html=1;align=center;verticalAlign=middle;resizable=0;points=[];" vertex="1" connectable="0" parent="PX_UHMba9LjzgC6dmEwp-25">
          <mxGeometry x="-0.2129" y="5" relative="1" as="geometry">
            <mxPoint as="offset" />
          </mxGeometry>
        </mxCell>
        <mxCell id="PX_UHMba9LjzgC6dmEwp-20" value="" style="points=[];perimeter=orthogonalPerimeter;rounded=0;shadow=0;strokeWidth=1;" vertex="1" parent="1">
          <mxGeometry x="485" y="230" width="10" height="60" as="geometry" />
        </mxCell>
        <mxCell id="PX_UHMba9LjzgC6dmEwp-48" style="edgeStyle=orthogonalEdgeStyle;rounded=0;orthogonalLoop=1;jettySize=auto;html=1;" edge="1" parent="1" source="PX_UHMba9LjzgC6dmEwp-27">
          <mxGeometry relative="1" as="geometry">
            <mxPoint x="320" y="520" as="targetPoint" />
            <Array as="points">
              <mxPoint x="320" y="520" />
            </Array>
          </mxGeometry>
        </mxCell>
        <mxCell id="PX_UHMba9LjzgC6dmEwp-49" value="1.리뷰입력(별점,내용)" style="edgeLabel;html=1;align=center;verticalAlign=middle;resizable=0;points=[];" vertex="1" connectable="0" parent="PX_UHMba9LjzgC6dmEwp-48">
          <mxGeometry x="0.2824" y="-3" relative="1" as="geometry">
            <mxPoint x="-16" y="-3" as="offset" />
          </mxGeometry>
        </mxCell>
        <mxCell id="PX_UHMba9LjzgC6dmEwp-27" value=":사용자" style="shape=umlLifeline;perimeter=lifelinePerimeter;container=1;collapsible=0;recursiveResize=0;rounded=0;shadow=0;strokeWidth=1;" vertex="1" parent="1">
          <mxGeometry x="120" y="440" width="100" height="300" as="geometry" />
        </mxCell>
        <mxCell id="PX_UHMba9LjzgC6dmEwp-29" value="" style="points=[];perimeter=orthogonalPerimeter;rounded=0;shadow=0;strokeWidth=1;" vertex="1" parent="PX_UHMba9LjzgC6dmEwp-27">
          <mxGeometry x="45" y="100" width="10" height="60" as="geometry" />
        </mxCell>
        <mxCell id="PX_UHMba9LjzgC6dmEwp-70" value="" style="points=[];perimeter=orthogonalPerimeter;rounded=0;shadow=0;strokeWidth=1;" vertex="1" parent="PX_UHMba9LjzgC6dmEwp-27">
          <mxGeometry x="45" y="210" width="10" height="60" as="geometry" />
        </mxCell>
        <mxCell id="PX_UHMba9LjzgC6dmEwp-31" value=":리뷰" style="shape=umlLifeline;perimeter=lifelinePerimeter;container=1;collapsible=0;recursiveResize=0;rounded=0;shadow=0;strokeWidth=1;" vertex="1" parent="1">
          <mxGeometry x="280" y="440" width="100" height="300" as="geometry" />
        </mxCell>
        <mxCell id="PX_UHMba9LjzgC6dmEwp-32" value="" style="points=[];perimeter=orthogonalPerimeter;rounded=0;shadow=0;strokeWidth=1;" vertex="1" parent="PX_UHMba9LjzgC6dmEwp-31">
          <mxGeometry x="45" y="80" width="10" height="40" as="geometry" />
        </mxCell>
        <mxCell id="PX_UHMba9LjzgC6dmEwp-33" value="" style="points=[];perimeter=orthogonalPerimeter;rounded=0;shadow=0;strokeWidth=1;" vertex="1" parent="PX_UHMba9LjzgC6dmEwp-31">
          <mxGeometry x="45" y="145" width="10" height="65" as="geometry" />
        </mxCell>
        <mxCell id="PX_UHMba9LjzgC6dmEwp-34" value=":DB" style="shape=umlLifeline;perimeter=lifelinePerimeter;container=1;collapsible=0;recursiveResize=0;rounded=0;shadow=0;strokeWidth=1;" vertex="1" parent="1">
          <mxGeometry x="440" y="440" width="100" height="300" as="geometry" />
        </mxCell>
        <mxCell id="PX_UHMba9LjzgC6dmEwp-35" value="" style="points=[];perimeter=orthogonalPerimeter;rounded=0;shadow=0;strokeWidth=1;" vertex="1" parent="PX_UHMba9LjzgC6dmEwp-34">
          <mxGeometry x="45" y="80" width="10" height="50" as="geometry" />
        </mxCell>
        <mxCell id="PX_UHMba9LjzgC6dmEwp-67" value="" style="points=[];perimeter=orthogonalPerimeter;rounded=0;shadow=0;strokeWidth=1;" vertex="1" parent="PX_UHMba9LjzgC6dmEwp-34">
          <mxGeometry x="45" y="230" width="10" height="60" as="geometry" />
        </mxCell>
        <mxCell id="PX_UHMba9LjzgC6dmEwp-38" value="" style="edgeStyle=orthogonalEdgeStyle;rounded=0;orthogonalLoop=1;jettySize=auto;html=1;exitX=1;exitY=0.667;exitDx=0;exitDy=0;exitPerimeter=0;" edge="1" parent="1" source="PX_UHMba9LjzgC6dmEwp-32" target="PX_UHMba9LjzgC6dmEwp-34">
          <mxGeometry relative="1" as="geometry">
            <Array as="points">
              <mxPoint x="335" y="530" />
            </Array>
          </mxGeometry>
        </mxCell>
        <mxCell id="PX_UHMba9LjzgC6dmEwp-50" value="2.리뷰저장(별점,내용)" style="edgeLabel;html=1;align=center;verticalAlign=middle;resizable=0;points=[];" vertex="1" connectable="0" parent="PX_UHMba9LjzgC6dmEwp-38">
          <mxGeometry x="-0.2218" y="-2" relative="1" as="geometry">
            <mxPoint x="25" as="offset" />
          </mxGeometry>
        </mxCell>
        <mxCell id="PX_UHMba9LjzgC6dmEwp-61" style="edgeStyle=orthogonalEdgeStyle;rounded=0;orthogonalLoop=1;jettySize=auto;html=1;entryX=1.433;entryY=0.723;entryDx=0;entryDy=0;entryPerimeter=0;" edge="1" parent="1" source="PX_UHMba9LjzgC6dmEwp-47" target="PX_UHMba9LjzgC6dmEwp-33">
          <mxGeometry relative="1" as="geometry">
            <Array as="points">
              <mxPoint x="450" y="632" />
              <mxPoint x="450" y="632" />
            </Array>
          </mxGeometry>
        </mxCell>
        <mxCell id="PX_UHMba9LjzgC6dmEwp-62" value="6. 수정된 리뷰" style="edgeLabel;html=1;align=center;verticalAlign=middle;resizable=0;points=[];" vertex="1" connectable="0" parent="PX_UHMba9LjzgC6dmEwp-61">
          <mxGeometry x="0.3318" y="-2" relative="1" as="geometry">
            <mxPoint x="37" y="5" as="offset" />
          </mxGeometry>
        </mxCell>
        <mxCell id="PX_UHMba9LjzgC6dmEwp-47" value="" style="points=[];perimeter=orthogonalPerimeter;rounded=0;shadow=0;strokeWidth=1;" vertex="1" parent="1">
          <mxGeometry x="485" y="590" width="10" height="60" as="geometry" />
        </mxCell>
        <mxCell id="PX_UHMba9LjzgC6dmEwp-51" value="3. 작성된 리뷰" style="edgeStyle=orthogonalEdgeStyle;rounded=0;orthogonalLoop=1;jettySize=auto;html=1;entryX=1.367;entryY=0.867;entryDx=0;entryDy=0;entryPerimeter=0;" edge="1" parent="1" source="PX_UHMba9LjzgC6dmEwp-35" target="PX_UHMba9LjzgC6dmEwp-32">
          <mxGeometry relative="1" as="geometry">
            <Array as="points">
              <mxPoint x="380" y="555" />
              <mxPoint x="380" y="555" />
            </Array>
          </mxGeometry>
        </mxCell>
        <mxCell id="PX_UHMba9LjzgC6dmEwp-57" style="edgeStyle=orthogonalEdgeStyle;rounded=0;orthogonalLoop=1;jettySize=auto;html=1;" edge="1" parent="1" source="PX_UHMba9LjzgC6dmEwp-29" target="PX_UHMba9LjzgC6dmEwp-31">
          <mxGeometry relative="1" as="geometry" />
        </mxCell>
        <mxCell id="PX_UHMba9LjzgC6dmEwp-58" value="4. 리뷰 수정" style="edgeLabel;html=1;align=center;verticalAlign=middle;resizable=0;points=[];" vertex="1" connectable="0" parent="PX_UHMba9LjzgC6dmEwp-57">
          <mxGeometry x="-0.402" y="1" relative="1" as="geometry">
            <mxPoint as="offset" />
          </mxGeometry>
        </mxCell>
        <mxCell id="PX_UHMba9LjzgC6dmEwp-59" value="5. 수정된 리뷰 저장" style="edgeStyle=orthogonalEdgeStyle;rounded=0;orthogonalLoop=1;jettySize=auto;html=1;" edge="1" parent="1" source="PX_UHMba9LjzgC6dmEwp-33" target="PX_UHMba9LjzgC6dmEwp-34">
          <mxGeometry relative="1" as="geometry">
            <Array as="points">
              <mxPoint x="410" y="608" />
              <mxPoint x="410" y="608" />
            </Array>
          </mxGeometry>
        </mxCell>
        <mxCell id="PX_UHMba9LjzgC6dmEwp-71" style="edgeStyle=orthogonalEdgeStyle;rounded=0;orthogonalLoop=1;jettySize=auto;html=1;" edge="1" parent="1" source="PX_UHMba9LjzgC6dmEwp-70" target="PX_UHMba9LjzgC6dmEwp-67">
          <mxGeometry relative="1" as="geometry">
            <Array as="points">
              <mxPoint x="400" y="680" />
              <mxPoint x="400" y="680" />
            </Array>
          </mxGeometry>
        </mxCell>
        <mxCell id="PX_UHMba9LjzgC6dmEwp-72" value="7. 리뷰 삭제" style="edgeLabel;html=1;align=center;verticalAlign=middle;resizable=0;points=[];" vertex="1" connectable="0" parent="PX_UHMba9LjzgC6dmEwp-71">
          <mxGeometry x="-0.1935" y="1" relative="1" as="geometry">
            <mxPoint as="offset" />
          </mxGeometry>
        </mxCell>
        <mxCell id="PX_UHMba9LjzgC6dmEwp-75" value=":유저" style="shape=umlLifeline;perimeter=lifelinePerimeter;container=1;collapsible=0;recursiveResize=0;rounded=0;shadow=0;strokeWidth=1;" vertex="1" parent="1">
          <mxGeometry x="120" y="870" width="100" height="300" as="geometry" />
        </mxCell>
        <mxCell id="PX_UHMba9LjzgC6dmEwp-76" value="비회원" style="points=[];perimeter=orthogonalPerimeter;rounded=0;shadow=0;strokeWidth=1;" vertex="1" parent="PX_UHMba9LjzgC6dmEwp-75">
          <mxGeometry x="45" y="70" width="10" height="60" as="geometry" />
        </mxCell>
        <mxCell id="PX_UHMba9LjzgC6dmEwp-77" value="사용자" style="points=[];perimeter=orthogonalPerimeter;rounded=0;shadow=0;strokeWidth=1;" vertex="1" parent="PX_UHMba9LjzgC6dmEwp-75">
          <mxGeometry x="45" y="150" width="10" height="60" as="geometry" />
        </mxCell>
        <mxCell id="PX_UHMba9LjzgC6dmEwp-96" value="관리자" style="points=[];perimeter=orthogonalPerimeter;rounded=0;shadow=0;strokeWidth=1;" vertex="1" parent="PX_UHMba9LjzgC6dmEwp-75">
          <mxGeometry x="45" y="240" width="10" height="60" as="geometry" />
        </mxCell>
        <mxCell id="PX_UHMba9LjzgC6dmEwp-114" value="리뷰 확인" style="edgeStyle=orthogonalEdgeStyle;rounded=0;orthogonalLoop=1;jettySize=auto;html=1;entryX=1.1;entryY=0.133;entryDx=0;entryDy=0;entryPerimeter=0;" edge="1" parent="1" source="PX_UHMba9LjzgC6dmEwp-78" target="PX_UHMba9LjzgC6dmEwp-76">
          <mxGeometry relative="1" as="geometry">
            <Array as="points">
              <mxPoint x="240" y="948" />
              <mxPoint x="240" y="948" />
            </Array>
          </mxGeometry>
        </mxCell>
        <mxCell id="PX_UHMba9LjzgC6dmEwp-78" value=":리뷰" style="shape=umlLifeline;perimeter=lifelinePerimeter;container=1;collapsible=0;recursiveResize=0;rounded=0;shadow=0;strokeWidth=1;" vertex="1" parent="1">
          <mxGeometry x="280" y="870" width="50" height="300" as="geometry" />
        </mxCell>
        <mxCell id="PX_UHMba9LjzgC6dmEwp-97" value=":회원가입" style="shape=umlLifeline;perimeter=lifelinePerimeter;container=1;collapsible=0;recursiveResize=0;rounded=0;shadow=0;strokeWidth=1;" vertex="1" parent="1">
          <mxGeometry x="350" y="870" width="50" height="300" as="geometry" />
        </mxCell>
        <mxCell id="PX_UHMba9LjzgC6dmEwp-98" value=":로그인" style="shape=umlLifeline;perimeter=lifelinePerimeter;container=1;collapsible=0;recursiveResize=0;rounded=0;shadow=0;strokeWidth=1;" vertex="1" parent="1">
          <mxGeometry x="425" y="870" width="50" height="300" as="geometry" />
        </mxCell>
        <mxCell id="PX_UHMba9LjzgC6dmEwp-109" style="edgeStyle=orthogonalEdgeStyle;rounded=0;orthogonalLoop=1;jettySize=auto;html=1;entryX=0.467;entryY=0.644;entryDx=0;entryDy=0;entryPerimeter=0;" edge="1" parent="1" source="PX_UHMba9LjzgC6dmEwp-99" target="PX_UHMba9LjzgC6dmEwp-102">
          <mxGeometry relative="1" as="geometry">
            <Array as="points">
              <mxPoint x="580" y="1063" />
              <mxPoint x="580" y="1063" />
            </Array>
          </mxGeometry>
        </mxCell>
        <mxCell id="PX_UHMba9LjzgC6dmEwp-117" value="작성한 게시글만 인증가능" style="edgeLabel;html=1;align=center;verticalAlign=middle;resizable=0;points=[];" vertex="1" connectable="0" parent="PX_UHMba9LjzgC6dmEwp-109">
          <mxGeometry x="-0.4018" y="-3" relative="1" as="geometry">
            <mxPoint x="49" as="offset" />
          </mxGeometry>
        </mxCell>
        <mxCell id="PX_UHMba9LjzgC6dmEwp-99" value=":도전 게시글" style="shape=umlLifeline;perimeter=lifelinePerimeter;container=1;collapsible=0;recursiveResize=0;rounded=0;shadow=0;strokeWidth=1;" vertex="1" parent="1">
          <mxGeometry x="490" y="870" width="80" height="300" as="geometry" />
        </mxCell>
        <mxCell id="PX_UHMba9LjzgC6dmEwp-118" value="후원(금액,인원)" style="edgeStyle=orthogonalEdgeStyle;rounded=0;orthogonalLoop=1;jettySize=auto;html=1;" edge="1" parent="1" source="PX_UHMba9LjzgC6dmEwp-101" target="PX_UHMba9LjzgC6dmEwp-99">
          <mxGeometry relative="1" as="geometry">
            <Array as="points">
              <mxPoint x="580" y="1100" />
              <mxPoint x="580" y="1100" />
            </Array>
          </mxGeometry>
        </mxCell>
        <mxCell id="PX_UHMba9LjzgC6dmEwp-101" value=":후원" style="shape=umlLifeline;perimeter=lifelinePerimeter;container=1;collapsible=0;recursiveResize=0;rounded=0;shadow=0;strokeWidth=1;" vertex="1" parent="1">
          <mxGeometry x="610" y="870" width="80" height="300" as="geometry" />
        </mxCell>
        <mxCell id="PX_UHMba9LjzgC6dmEwp-110" value="인증 요청" style="edgeStyle=orthogonalEdgeStyle;rounded=0;orthogonalLoop=1;jettySize=auto;html=1;entryX=1.167;entryY=0.233;entryDx=0;entryDy=0;entryPerimeter=0;" edge="1" parent="1" source="PX_UHMba9LjzgC6dmEwp-102" target="PX_UHMba9LjzgC6dmEwp-96">
          <mxGeometry relative="1" as="geometry">
            <Array as="points">
              <mxPoint x="710" y="1124" />
              <mxPoint x="710" y="1124" />
            </Array>
          </mxGeometry>
        </mxCell>
        <mxCell id="PX_UHMba9LjzgC6dmEwp-102" value=":인증" style="shape=umlLifeline;perimeter=lifelinePerimeter;container=1;collapsible=0;recursiveResize=0;rounded=0;shadow=0;strokeWidth=1;" vertex="1" parent="1">
          <mxGeometry x="730" y="870" width="80" height="300" as="geometry" />
        </mxCell>
        <mxCell id="PX_UHMba9LjzgC6dmEwp-104" style="edgeStyle=orthogonalEdgeStyle;rounded=0;orthogonalLoop=1;jettySize=auto;html=1;" edge="1" parent="1" source="PX_UHMba9LjzgC6dmEwp-76" target="PX_UHMba9LjzgC6dmEwp-97">
          <mxGeometry relative="1" as="geometry">
            <Array as="points">
              <mxPoint x="250" y="970" />
              <mxPoint x="250" y="970" />
            </Array>
          </mxGeometry>
        </mxCell>
        <mxCell id="PX_UHMba9LjzgC6dmEwp-115" value="회원가입" style="edgeLabel;html=1;align=center;verticalAlign=middle;resizable=0;points=[];" vertex="1" connectable="0" parent="PX_UHMba9LjzgC6dmEwp-104">
          <mxGeometry x="-0.3417" y="-2" relative="1" as="geometry">
            <mxPoint as="offset" />
          </mxGeometry>
        </mxCell>
        <mxCell id="PX_UHMba9LjzgC6dmEwp-105" style="edgeStyle=orthogonalEdgeStyle;rounded=0;orthogonalLoop=1;jettySize=auto;html=1;" edge="1" parent="1" source="PX_UHMba9LjzgC6dmEwp-77" target="PX_UHMba9LjzgC6dmEwp-98">
          <mxGeometry relative="1" as="geometry">
            <Array as="points">
              <mxPoint x="260" y="1040" />
              <mxPoint x="260" y="1040" />
            </Array>
          </mxGeometry>
        </mxCell>
        <mxCell id="PX_UHMba9LjzgC6dmEwp-116" value="로그인" style="edgeLabel;html=1;align=center;verticalAlign=middle;resizable=0;points=[];" vertex="1" connectable="0" parent="PX_UHMba9LjzgC6dmEwp-105">
          <mxGeometry x="-0.4196" relative="1" as="geometry">
            <mxPoint as="offset" />
          </mxGeometry>
        </mxCell>
        <mxCell id="PX_UHMba9LjzgC6dmEwp-106" value="도전 게시글 작성" style="edgeStyle=orthogonalEdgeStyle;rounded=0;orthogonalLoop=1;jettySize=auto;html=1;entryX=0.475;entryY=0.602;entryDx=0;entryDy=0;entryPerimeter=0;" edge="1" parent="1" source="PX_UHMba9LjzgC6dmEwp-77" target="PX_UHMba9LjzgC6dmEwp-99">
          <mxGeometry relative="1" as="geometry" />
        </mxCell>
        <mxCell id="PX_UHMba9LjzgC6dmEwp-108" value="후원하기" style="edgeStyle=orthogonalEdgeStyle;rounded=0;orthogonalLoop=1;jettySize=auto;html=1;entryX=0.483;entryY=0.698;entryDx=0;entryDy=0;entryPerimeter=0;" edge="1" parent="1" source="PX_UHMba9LjzgC6dmEwp-77" target="PX_UHMba9LjzgC6dmEwp-101">
          <mxGeometry relative="1" as="geometry">
            <Array as="points">
              <mxPoint x="383" y="1070" />
              <mxPoint x="383" y="1079" />
            </Array>
          </mxGeometry>
        </mxCell>
        <mxCell id="PX_UHMba9LjzgC6dmEwp-112" value="인증 수락" style="edgeStyle=orthogonalEdgeStyle;rounded=0;orthogonalLoop=1;jettySize=auto;html=1;entryX=0.533;entryY=0.9;entryDx=0;entryDy=0;entryPerimeter=0;" edge="1" parent="1" source="PX_UHMba9LjzgC6dmEwp-96" target="PX_UHMba9LjzgC6dmEwp-102">
          <mxGeometry relative="1" as="geometry" />
        </mxCell>
        <mxCell id="PX_UHMba9LjzgC6dmEwp-119" style="edgeStyle=orthogonalEdgeStyle;rounded=0;orthogonalLoop=1;jettySize=auto;html=1;" edge="1" parent="1" source="PX_UHMba9LjzgC6dmEwp-77" target="PX_UHMba9LjzgC6dmEwp-78">
          <mxGeometry relative="1" as="geometry">
            <Array as="points">
              <mxPoint x="260" y="1030" />
              <mxPoint x="260" y="1030" />
            </Array>
          </mxGeometry>
        </mxCell>
        <mxCell id="PX_UHMba9LjzgC6dmEwp-120" value="리뷰 작성" style="edgeLabel;html=1;align=center;verticalAlign=middle;resizable=0;points=[];" vertex="1" connectable="0" parent="PX_UHMba9LjzgC6dmEwp-119">
          <mxGeometry x="0.1995" y="1" relative="1" as="geometry">
            <mxPoint as="offset" />
          </mxGeometry>
        </mxCell>
      </root>
    </mxGraphModel>
  </diagram>
</mxfile>
